<svg width="32" height="33" viewBox="0 0 32 33" fill="none" xmlns="http://www.w3.org/2000/svg">
<g clip-path="url(#clip0_2661_80)">
<path d="M24.5 0H7.5C3.35786 0 0 3.4628 0 7.73438V25.2656C0 29.5372 3.35786 33 7.5 33H24.5C28.6421 33 32 29.5372 32 25.2656V7.73438C32 3.4628 28.6421 0 24.5 0Z" fill="#F0DB4F"/>
<path d="M8.41419 27.577L10.8629 26.0487C11.3354 26.9125 11.7652 27.6434 12.7961 27.6434C13.7842 27.6434 14.4072 27.2448 14.4072 25.6943V15.15H17.4144V25.7381C17.4144 28.9501 15.5887 30.4121 12.9249 30.4121C10.5193 30.4121 9.12294 29.1273 8.41406 27.5767M19.0478 27.2447L21.4963 25.7827C22.1409 26.8683 22.9787 27.6657 24.4607 27.6657C25.7068 27.6657 26.5013 27.0232 26.5013 26.1371C26.5013 25.0739 25.6851 24.6972 24.3103 24.0772L23.5587 23.7447C21.3891 22.7924 19.9498 21.5961 19.9498 19.0708C19.9498 16.7449 21.6683 14.9727 24.3534 14.9727C26.2652 14.9727 27.6399 15.6595 28.6279 17.4537L26.2866 19.0043C25.7709 18.0518 25.2127 17.6753 24.3534 17.6753C23.4727 17.6753 22.9142 18.2513 22.9142 19.0043C22.9142 19.9346 23.4727 20.3113 24.7614 20.8874L25.5132 21.2196C28.0693 22.3494 29.5086 23.5011 29.5086 26.0928C29.5086 28.8841 27.3821 30.4124 24.5252 30.4124C21.7328 30.4124 19.9284 29.039 19.0478 27.2447Z" fill="#323330"/>
</g>
<defs>
<clipPath id="clip0_2661_80">
<rect width="32" height="33" fill="white"/>
</clipPath>
</defs>
</svg>
