<svg width="33" height="33" viewBox="0 0 33 33" fill="none" xmlns="http://www.w3.org/2000/svg">
<path d="M25.1097 0.204102H7.68663C3.44142 0.204102 0 3.64552 0 7.89073V25.3138C0 29.559 3.44142 33.0004 7.68663 33.0004H25.1097C29.3549 33.0004 32.7963 29.559 32.7963 25.3138V7.89073C32.7963 3.64552 29.3549 0.204102 25.1097 0.204102Z" fill="#242938"/>
<path d="M6.29737 13.0469H9.93673C11.0049 13.0558 11.779 13.3638 12.2589 13.9703C12.7388 14.5767 12.8971 15.4051 12.7342 16.4554C12.6709 16.9353 12.5305 17.4059 12.3132 17.8677C12.1049 18.3294 11.8153 18.7457 11.4441 19.117C10.9913 19.5877 10.5071 19.8864 9.99105 20.0132C9.47502 20.1401 8.9408 20.2034 8.38864 20.2034H6.75908L6.24305 22.7835H4.35547L6.29737 13.0469ZM7.8862 14.5949L7.07141 18.6689C7.12573 18.6778 7.18005 18.6824 7.23437 18.6824H7.42448C8.29359 18.6914 9.01792 18.6056 9.59724 18.4244C10.1766 18.2343 10.566 17.5735 10.7651 16.4418C10.9281 15.4912 10.7651 14.9434 10.2762 14.7986C9.79632 14.6539 9.19446 14.586 8.47012 14.5949C8.36148 14.6039 8.25746 14.6085 8.15779 14.6085H7.87262L7.8862 14.5949ZM14.8844 10.4531H16.7584L16.2288 13.0469H17.9126C18.8361 13.065 19.524 13.2552 19.9768 13.6172C20.4385 13.9792 20.5743 14.6674 20.3841 15.6813L19.4743 20.2034H17.5731L18.4422 15.885C18.5327 15.4323 18.5055 15.111 18.3608 14.9209C18.216 14.7307 17.9037 14.6357 17.4238 14.6357L15.9164 14.6221L14.8029 20.2034H12.9289L14.8844 10.4531ZM22.3965 13.0469H26.0359C27.1041 13.0558 27.8781 13.3638 28.358 13.9703C28.8379 14.5767 28.9962 15.4051 28.8333 16.4554C28.77 16.9353 28.6296 17.4059 28.4123 17.8677C28.204 18.3294 27.9145 18.7457 27.5432 19.117C27.0905 19.5877 26.6062 19.8864 26.0902 20.0132C25.5742 20.1401 25.0399 20.2034 24.4878 20.2034H22.8582L22.3422 22.7835H20.4546L22.3965 13.0469ZM23.9853 14.5949L23.1705 18.6689C23.2249 18.6778 23.2792 18.6824 23.3335 18.6824H23.5236C24.3927 18.6914 25.1171 18.6056 25.6964 18.4244C26.2757 18.2343 26.6651 17.5735 26.8642 16.4418C27.0272 15.4912 26.8642 14.9434 26.3754 14.7986C25.8955 14.6539 25.2936 14.586 24.5693 14.5949C24.4606 14.6039 24.3566 14.6085 24.2569 14.6085H23.9718L23.9853 14.5949Z" fill="white"/>
</svg>
