<svg width="33" height="33" viewBox="0 0 33 33" fill="none" xmlns="http://www.w3.org/2000/svg">
<path d="M16.5 33C25.6127 33 33 25.6127 33 16.5C33 7.3873 25.6127 0 16.5 0C7.3873 0 0 7.3873 0 16.5C0 25.6127 7.3873 33 16.5 33Z" fill="#1A171B"/>
<path d="M23.0491 6.00275C21.3905 6.06038 19.943 6.97092 18.8654 8.23043C17.6722 9.61145 16.8784 11.2494 16.3065 12.9214C15.2835 12.0862 14.4942 11.0049 12.8528 10.5334C11.5842 10.1706 10.2517 10.3205 9.02633 11.2299C8.44584 11.6618 8.04595 12.3147 7.85577 12.9284C7.36341 14.5234 8.37342 15.9429 8.83219 16.4525L9.83518 17.5232C10.042 17.7331 10.5399 18.2808 10.2965 19.0661C10.0334 19.9197 9.00014 20.4725 7.94032 20.1468C7.46699 20.0031 6.78701 19.6518 6.93925 19.1572C7.00222 18.9549 7.14756 18.8035 7.22547 18.6285C7.29699 18.4783 7.3311 18.3656 7.35281 18.2994C7.54643 17.6697 7.28192 16.8503 6.60475 16.6423C5.97304 16.4495 5.32665 16.6023 5.07607 17.4125C4.79189 18.333 5.23405 20.0036 7.60276 20.731C10.378 21.5804 12.7256 20.0752 13.0586 18.112C13.2683 16.8824 12.7109 15.9689 11.6898 14.794L10.8578 13.8775C10.3539 13.376 10.1808 12.5212 10.7024 11.8642C11.1425 11.31 11.7694 11.0735 12.796 11.3516C14.2945 11.7569 14.9625 12.7927 16.0771 13.628C15.617 15.1317 15.3162 16.6409 15.0439 17.9943L14.878 19.0033C14.0812 23.1662 13.473 25.4521 11.8925 26.7644C11.5741 26.9899 11.1189 27.3276 10.4328 27.3511C10.0731 27.3622 9.9569 27.1158 9.95192 27.0084C9.94336 26.7569 10.1561 26.6416 10.2975 26.5284C10.5088 26.4136 10.8282 26.2233 10.8065 25.6135C10.7835 24.8929 10.1842 24.2681 9.31804 24.2967C8.66922 24.3187 7.68028 24.927 7.71745 26.0403C7.75615 27.1903 8.83219 28.0521 10.4545 27.9975C11.3217 27.9679 13.2582 27.6163 15.1667 25.3564C17.388 22.7659 18.0093 19.7961 18.4766 17.6225L18.9982 14.7528C19.288 14.7874 19.5979 14.8104 19.9349 14.8185C22.7015 14.8766 24.0853 13.4491 24.1059 12.4109C24.1195 11.7825 23.6919 11.1642 23.0933 11.1782C22.6648 11.1903 22.1265 11.4744 21.9972 12.0647C21.871 12.6438 22.8776 13.1665 22.0908 13.6741C21.5319 14.0344 20.53 14.2883 19.1189 14.082L19.3755 12.6694C19.8992 9.9907 20.545 6.69574 22.9952 6.61559C23.1738 6.60655 23.8272 6.6236 23.8424 7.054C23.8469 7.19776 23.8111 7.2344 23.6421 7.56353C23.4701 7.82014 23.4052 8.03858 23.4133 8.28959C23.4369 8.97355 23.959 9.42303 24.7141 9.39593C25.7251 9.36336 26.0159 8.38285 25.9993 7.8793C25.9585 6.69612 24.7067 5.94868 23.0491 6.00275Z" fill="white"/>
</svg>
